# xmcd
#
# Track frame offsets:
# 150
# 12462
# 24499
# 41845
# 56740
# 69697
# 85001
# 101635
# 117637
# 132358
# 146187
# 160864
# 175777
# 186643
# 201063
# 215699
#
# Disc length: 3105 seconds
#
# Revision: 3
# Processed by: cddbd v1.5.2PL0 Copyright (c) Steve Scherf et al.
# Submitted via: Axialis_AX_CDPlayer 2.6
#
DISCID=f70c1f10
DTITLE=John Conlee - Country Heart
DYEAR=2006
DGENRE=Country
TTITLE0=She Woke Up Leavin'
TTITLE1=Hit the Ground Running
TTITLE2=River of Time
TTITLE3=Country Heart
TTITLE4=Fellow Travelers
TTITLE5=Indian Head Penny
TTITLE6=I Had the Time and Money Too
TTITLE7=Black Label, White Lies
TTITLE8=Doghouse
TTITLE9=Midnight's Murder On Me
TTITLE10=Until You Were Gone
TTITLE11=I'm Not That Good At Goodbye
TTITLE12=Hopelessly Yours
TTITLE13=I Can't Stand to Watch My Old Flame Burn
TTITLE14=Nothing Changed
TTITLE15=Love Stands Tall
EXTD=
EXTT0=
EXTT1=
EXTT2=
EXTT3=
EXTT4=
EXTT5=
EXTT6=
EXTT7=
EXTT8=
EXTT9=
EXTT10=
EXTT11=
EXTT12=
EXTT13=
EXTT14=
EXTT15=
PLAYORDER=
